{
  "title": "Australian Survivor - S03E15",
  "uid": 15896904,
  "size": 584276497,
  "categoryP": "video",
  "categoryS": "tv_shows",
  "magnet": "?xt=urn:btih:bf224cc8f5e3c4e980231fcce42c362265d8bd68&amp;dn=Australian+Survivor+-+S03E15&amp;tr=udp%3A%2F%2Ftracker.leechers-paradise.org%3A6969&amp;tr=udp%3A%2F%2Fzer0day.ch%3A1337&amp;tr=udp%3A%2F%2Fopen.demonii.com%3A1337&amp;tr=udp%3A%2F%2Ftracker.coppersurfer.tk%3A6969&amp;tr=udp%3A%2F%2Fexodus.desync.com%3A6969",
  "seeders": 208,
  "leechers": 35,
  "uploader": "Bullrout",
  "files": 1,
  "time": 1474819023,
  "description": "Australian Survivor - S03E15\r\n\r\nOne tribe is still shocked after the last tribal council, but they try and rally each other back together anticipating another Immunity Challenge to avoid another elimination.\r\n\r\nComplete name                            : Australian Survivor - S03E15.mp4\r\nFormat                                   : MPEG-4\r\nFormat profile                           : Base Media / Version 2\r\nCodec ID                                 : mp42 (mp42/isom/avc1)\r\nFile size                                : 557 MiB\r\nDuration                                 : 1 h 10 min\r\nOverall bit rate mode                    : Variable\r\nOverall bit rate                         : 1 111 kb/s\r\n\r\n\r\nVideo\r\nID                                       : 2\r\nFormat                                   : AVC\r\nFormat/Info                              : Advanced Video Codec\r\nFormat profile                           :   \r\nFormat settings, CABAC                   : Yes\r\nFormat settings, ReFrames                : 3 frames\r\nCodec ID                                 : avc1\r\nCodec ID/Info                            : Advanced Video Coding\r\nDuration                                 : 1 h 10 min\r\nBit rate mode                            : Variable\r\nBit rate                                 : 979 kb/s\r\nMaximum bit rate                         : 1 000 kb/s\r\nWidth                                    : 720 pixels\r\nHeight                                   : 404 pixels\r\nDisplay aspect ratio                     : 16:9\r\nOriginal display aspect ratio            : 16:9\r\nFrame rate mode                          : Constant\r\nFrame rate                               : 25.000 FPS\r\nStandard                                 : PAL\r\nColor space                              : YUV\r\nChroma subsampling                       : 4:2:0\r\nBit depth                                : 8 bits\r\nScan type                                : Progressive\r\nBits/(Pixel*Frame)                       : 0.135\r\nStream size                              : 491 MiB (88%)\r\nWriting library                          : x264 core 112\r\nColor range                              : Limited\r\nColor primaries                          : BT.601 PAL\r\nTransfer characteristics                 : BT.470 System B, BT.470 System G\r\nMatrix coefficients                      : BT.601\r\n\r\nAudio\r\nID                                       : 1\r\nFormat                                   : AAC\r\nFormat/Info                              : Advanced Audio Codec\r\nFormat profile                           : LC\r\nCodec ID                                 : 40\r\nDuration                                 : 1 h 10 min\r\nBit rate mode                            : Variable\r\nBit rate                                 : 128 kb/s\r\nMaximum bit rate                         : 576 kb/s\r\nChannel(s)                               : 2 channels\r\nChannel positions                        : Front: L R\r\nSampling rate                            : 48.0 kHz\r\nFrame rate                               : 46.875 FPS (1024 spf)\r\nCompression mode                         : Lossy\r\nStream size                              : 64.2 MiB (12%)",
  "parsed": {
    "xt": "urn:btih:bf224cc8f5e3c4e980231fcce42c362265d8bd68",
    "dn": "Australian Survivor - S03E15",
    "tr": [
      "udp://exodus.desync.com:6969",
      "udp://open.demonii.com:1337",
      "udp://tracker.coppersurfer.tk:6969",
      "udp://tracker.leechers-paradise.org:6969",
      "udp://zer0day.ch:1337"
    ],
    "infoHash": "bf224cc8f5e3c4e980231fcce42c362265d8bd68",
    "infoHashBuffer": {
      "type": "Buffer",
      "data": [
        191,
        34,
        76,
        200,
        245,
        227,
        196,
        233,
        128,
        35,
        31,
        204,
        228,
        44,
        54,
        34,
        101,
        216,
        189,
        104
      ]
    },
    "name": "Australian Survivor - S03E15",
    "announce": [
      "udp://exodus.desync.com:6969",
      "udp://open.demonii.com:1337",
      "udp://tracker.coppersurfer.tk:6969",
      "udp://tracker.leechers-paradise.org:6969",
      "udp://zer0day.ch:1337"
    ],
    "urlList": []
  },
  "previous": 24,
  "peers": 70,
  "last_updated": "2016-12-27T11:54:01.776Z"
}